<svg width="20" height="21" viewBox="0 0 20 21" fill="none" xmlns="http://www.w3.org/2000/svg">
<g id="Huge-icon/ecommerce/outline/cart">
<path id="Ellipse 653" d="M9.16669 17.5834C9.16669 18.2737 8.60704 18.8334 7.91669 18.8334C7.22633 18.8334 6.66669 18.2737 6.66669 17.5834C6.66669 16.893 7.22633 16.3334 7.91669 16.3334C8.60704 16.3334 9.16669 16.893 9.16669 17.5834Z" stroke="white" stroke-width="1.5"/>
<path id="Ellipse 654" d="M16.6667 17.5834C16.6667 18.2737 16.107 18.8334 15.4167 18.8334C14.7263 18.8334 14.1667 18.2737 14.1667 17.5834C14.1667 16.893 14.7263 16.3334 15.4167 16.3334C16.107 16.3334 16.6667 16.893 16.6667 17.5834Z" stroke="white" stroke-width="1.5"/>
<path id="Rectangle 1055" d="M5.00002 3.83329H15C16.841 3.83329 18.3334 5.32568 18.3334 7.16663V11.3333C18.3334 13.1742 16.841 14.6666 15 14.6666H8.33335C6.4924 14.6666 5.00002 13.1742 5.00002 11.3333V3.83329ZM5.00002 3.83329C5.00002 2.91282 4.25383 2.16663 3.33335 2.16663H1.66669M5.00002 7.16663H17.9167" stroke="white" stroke-width="1.5" stroke-linecap="round" stroke-linejoin="round"/>
</g>
</svg>
